<svg aria-hidden="true" style="position: absolute; width: 0; height: 0; overflow: hidden;" version="1.1" xmlns="http://www.w3.org/2000/svg" xmlns:xlink="http://www.w3.org/1999/xlink">
<defs>
<symbol id="icon-close" viewBox="0 0 32 32">
<path stroke-linejoin="miter" stroke-linecap="butt" stroke-miterlimit="4" stroke-width="2.1333" d="M8.533 8.533l14.933 14.933M8.533 23.467l14.933-14.933"></path>
</symbol>
<symbol id="icon-logo" viewBox="0 0 32 32">
<path fill="none" stroke-linejoin="round" stroke-linecap="round" stroke-miterlimit="4" stroke-width="2.6667" d="M26.427 2.667h-20.853c-1.605 0-2.907 1.301-2.907 2.907v0 20.853c0 1.605 1.301 2.907 2.907 2.907v0h20.853c1.605 0 2.907-1.301 2.907-2.907v0-20.853c0-1.605-1.301-2.907-2.907-2.907v0zM9.333 2.667v26.667M22.667 2.667v26.667M2.667 16h26.667M2.667 9.333h6.667M2.667 22.667h6.667M22.667 22.667h6.667M22.667 9.333h6.667"></path>
</symbol>
<symbol id="icon-heart" viewBox="0 0 34 32">
<path fill="#ff6b08" style="fill: var(--color2, #ff6b08)" d="M17.231 31.705l-2.412-2.412c-8.96-7.926-14.818-13.268-14.818-19.815 0-5.342 4.135-9.477 9.477-9.477 2.929 0 5.858 1.378 7.754 3.618 1.895-2.24 4.825-3.618 7.754-3.618 5.342 0 9.477 4.135 9.477 9.477 0 6.548-5.858 11.889-14.818 19.815l-2.412 2.412z"></path>
</symbol>
<symbol id="icon-search" viewBox="0 0 32 32">
<path fill="none" stroke-linejoin="round" stroke-linecap="round" stroke-miterlimit="4" stroke-width="2.6667" d="M14.667 25.333c5.891 0 10.667-4.776 10.667-10.667s-4.776-10.667-10.667-10.667v0c-5.891 0-10.667 4.776-10.667 10.667s4.776 10.667 10.667 10.667v0zM28 28l-5.8-5.8"></path>
</symbol>
<symbol id="icon-arrow" viewBox="0 0 32 32">
<path fill="none" stroke="#ff6b08" style="stroke: var(--color1, #ff6b08)" stroke-linejoin="miter" stroke-linecap="butt" stroke-miterlimit="4" stroke-width="2.8657" d="M30.567 16c0 8.045-6.522 14.567-14.567 14.567s-14.567-6.522-14.567-14.567c0-8.045 6.522-14.567 14.567-14.567s14.567 6.522 14.567 14.567z"></path>
<path fill="none" stroke="#ff6b08" style="stroke: var(--color1, #ff6b08)" stroke-linejoin="miter" stroke-linecap="round" stroke-miterlimit="2.924" stroke-width="2.8657" d="M15.761 23.403v-13.373"></path>
<path fill="none" stroke="#ff6b08" style="stroke: var(--color1, #ff6b08)" stroke-linejoin="miter" stroke-linecap="round" stroke-miterlimit="4" stroke-width="2.8657" d="M15.349 10.144l-5.205 5.551M16.173 10.144l5.205 5.551"></path>
</symbol>
<symbol id="night-theme" viewBox="0 0 32 32">
<path d="M16.5 10.707c0.063-0.010 0.126-0.021 0.19-0.035 3.203-0.802 7.718-0.765 10.041-0.409 0.28 0.043 0.325 1.215 0.075 1.256-0.459 0.169-0.655 0.59-0.655 0.59s-0.137 0.374-0.535 1.894c-0.398 1.52-1.347 1.702-1.347 1.702s-1.162 0.261-2.502 0.261c-1.34 0-2.142-0.055-3-0.446s-1.233-1.477-1.233-1.477c0 0-0.432-0.937-0.73-1.82-0.045-0.134-0.163-0.225-0.304-0.284-0.14 0.058-0.259 0.15-0.304 0.284-0.298 0.884-0.73 1.82-0.73 1.82s-0.375 1.087-1.233 1.477c-0.858 0.39-1.66 0.446-3 0.446s-2.502-0.261-2.502-0.261c0 0-0.949-0.182-1.347-1.702s-0.535-1.894-0.535-1.894c0 0-0.196-0.421-0.655-0.59-0.249-0.041-0.205-1.213 0.075-1.256 2.323-0.356 6.839-0.393 10.041 0.409 0.064 0.013 0.127 0.025 0.19 0.035zM16.5 29c6.904 0 12.5-5.596 12.5-12.5s-5.596-12.5-12.5-12.5c-6.904 0-12.5 5.596-12.5 12.5s5.596 12.5 12.5 12.5zM16.481 22c3.481 0 5.519-2 5.519-2v1c0 0-2.037 2-5.519 2s-5.481-2-5.481-2v-1c0 0 2 2 5.481 2z"></path>
</symbol>
<symbol id="day-theme" viewBox="0 0 32 32">
<path d="M26.11 10.181v0c-2.442-0.275-6.483-0.245-9.42 0.491-0.064 0.013-0.127 0.025-0.19 0.035-0.063-0.010-0.126-0.021-0.19-0.035-2.937-0.736-6.978-0.765-9.42-0.491v0c2.056-3.121 5.593-5.181 9.61-5.181s7.554 2.060 9.61 5.181zM26.856 11.494c0.733 1.513 1.144 3.212 1.144 5.006 0 6.351-5.149 11.5-11.5 11.5s-11.5-5.149-11.5-11.5c0-1.794 0.411-3.493 1.144-5.006 0.015 0.014 0.031 0.023 0.049 0.026 0.459 0.169 0.655 0.59 0.655 0.59s0.137 0.374 0.535 1.894c0.398 1.52 1.347 1.702 1.347 1.702s1.162 0.261 2.502 0.261c1.34 0 2.142-0.055 3-0.446s1.233-1.477 1.233-1.477c0 0 0.432-0.937 0.73-1.82 0.045-0.134 0.163-0.225 0.304-0.284 0.14 0.058 0.259 0.15 0.304 0.284 0.298 0.884 0.73 1.82 0.73 1.82s0.375 1.087 1.233 1.477c0.858 0.39 1.66 0.446 3 0.446s2.502-0.261 2.502-0.261c0 0 0.949-0.182 1.347-1.702s0.535-1.894 0.535-1.894c0 0 0.196-0.421 0.655-0.59 0.018-0.003 0.034-0.012 0.049-0.026v0zM16.5 29c6.904 0 12.5-5.596 12.5-12.5s-5.596-12.5-12.5-12.5c-6.904 0-12.5 5.596-12.5 12.5s5.596 12.5 12.5 12.5v0zM16.481 22c-3.481 0-5.481-2-5.481-2v1c0 0 2 2 5.481 2s5.519-2 5.519-2v-1c0 0-2.037 2-5.519 2v0z"></path>
</symbol>
</defs>
</svg>
